Coordinates
version=1
nRows=16
nColumns=22
inDegrees=yes

Units are S.I. units (second, meters, Newtons, ...)
If the header above contains a line with 'inDegrees', this indicates whether rotational values are in degrees (yes) or radians (no).

endheader
time	pelvis_tilt	pelvis_list	pelvis_rotation	pelvis_tx	pelvis_ty	pelvis_tz	hip_flexion_r	hip_adduction_r	hip_rotation_r	knee_angle_r	ankle_angle_r	subtalar_angle_r	hip_flexion_l	hip_adduction_l	hip_rotation_l	knee_angle_l	ankle_angle_l	subtalar_angle_l	lumbar_extension	lumbar_bending	lumbar_rotation
      5.90000000	      0.55206360	     -4.65075105	     -1.76208412	      0.46493969	      1.00815936	     -0.09947983	     14.13917501	      8.65035398	     -2.78866620	    -18.35756352	      3.26435135	     -3.43371745	     -0.14121501	     -3.33755360	      0.22490803	    -44.04393590	      2.48514199	     12.08053249	    -10.64374537	      5.41601412	      2.36504774
      5.91000000	      0.62500157	     -4.71364034	     -1.62788642	      0.46935751	      1.00848196	     -0.09876515	     13.75174791	      8.73880216	     -2.90350579	    -18.29741747	      3.50089370	     -3.48245331	      0.70254381	     -3.63878027	      0.14448964	    -45.82464041	      1.70614780	     12.52480998	    -10.73921290	      5.52790642	      2.41175694
      5.92000000	      0.66686859	     -4.75035969	     -1.49502016	      0.47360751	      1.00873480	     -0.09800364	     13.40399361	      8.80626555	     -3.01815168	    -18.23007817	      3.78124611	     -3.54456277	      1.62446257	     -3.93236773	      0.04184990	    -47.62147651	      1.04094858	     13.17733028	    -10.80701168	      5.59669614	      2.42594235
      5.93000000	      0.76802104	     -4.83952174	     -1.32256792	      0.47773999	      1.00910977	     -0.09731940	     12.95752678	      8.92321275	     -3.16064109	    -18.07689077	      3.95691992	     -3.57737682	      2.50194677	     -4.27290490	      0.01373475	    -49.38045280	      0.45375143	     13.63849911	    -10.95080649	      5.72798879	      2.47812814
      5.94000000	      0.83192644	     -4.89056741	     -1.16759357	      0.48171550	      1.00941900	     -0.09658510	     12.55648985	      9.01018475	     -3.27348220	    -17.92110451	      4.20718177	     -3.62016915	      3.43357842	     -4.58151282	     -0.02690745	    -51.08369329	      0.04473117	     14.38629501	    -11.05772644	      5.80191212	      2.52368336
      5.95000000	      0.94029900	     -4.97186446	     -0.98886842	      0.48558358	      1.00982710	     -0.09590444	     12.07404859	      9.12830443	     -3.38938135	    -17.68531494	      4.38473267	     -3.62989013	      4.31229989	     -4.91657668	     -0.02669033	    -52.68724620	     -0.18668912	     14.92153702	    -11.22093248	      5.91152142	      2.57438343
      5.96000000	      1.08248591	     -5.06744883	     -0.80731271	      0.48934676	      1.01031705	     -0.09525965	     11.53395415	      9.26260170	     -3.50546387	    -17.39576824	      4.51500960	     -3.61915363	      5.13424245	     -5.25768386	     -0.00532997	    -54.15798431	     -0.22049480	     15.18339999	    -11.42817324	      6.03570625	      2.66434104
      5.97000000	      1.21349608	     -5.14297699	     -0.63067871	      0.49301117	      1.01081635	     -0.09464088	     10.98719282	      9.38030180	     -3.58382677	    -17.06308256	      4.66288772	     -3.59265258	      5.94150089	     -5.56206311	      0.03947188	    -55.47496750	     -0.03054338	     15.42916752	    -11.62184268	      6.13463843	      2.75598651
      5.98000000	      1.35376519	     -5.20316841	     -0.46028173	      0.49660123	      1.01136154	     -0.09407007	     10.41164390	      9.48230897	     -3.63455000	    -16.69024500	      4.80485149	     -3.55922776	      6.70038391	     -5.83625442	      0.08788148	    -56.61455421	      0.36157107	     15.49992997	    -11.82190678	      6.21771780	      2.86816373
      5.99000000	      1.49348701	     -5.26425755	     -0.29334249	      0.50012475	      1.01193366	     -0.09353241	      9.81278037	      9.58580385	     -3.67692820	    -16.26387524	      4.90395287	     -3.51365739	      7.42021847	     -6.09796634	      0.14372907	    -57.57357563	      0.93517213	     15.42180618	    -12.01707618	      6.30176049	      2.98852110
      6.00000000	      1.63555747	     -5.32909665	     -0.13486788	      0.50358933	      1.01252691	     -0.09302061	      9.19602520	      9.69328907	     -3.71465074	    -15.80299136	      4.96959149	     -3.46431857	      8.09478302	     -6.35565769	      0.18869707	    -58.34854186	      1.64094115	     15.18258050	    -12.21113654	      6.39055123	      3.12794949
      6.01000000	      1.77556034	     -5.39557123	      0.00794104	      0.50700117	      1.01312301	     -0.09252711	      8.56944980	      9.80268508	     -3.74276671	    -15.31481662	      5.01360400	     -3.41504499	      8.72567712	     -6.61313918	      0.20328475	    -58.93989091	      2.43054531	     14.81075359	    -12.39869997	      6.48195944	      3.27992326
      6.02000000	      1.93399037	     -5.45111875	      0.14364881	      0.51036049	      1.01376225	     -0.09205962	      7.89826358	      9.90525754	     -3.71035438	    -14.77722484	      5.03592132	     -3.35070693	      9.28683497	     -6.85159586	      0.19598791	    -59.33893228	      3.21731461	     14.18870636	    -12.60299101	      6.56147073	      3.42588897
      6.03000000	      2.05462559	     -5.52702429	      0.25847603	      0.51365418	      1.01429642	     -0.09156180	      7.28444151	     10.03046745	     -3.70265828	    -14.26241937	      5.05361964	     -3.30938813	      9.85374642	     -7.12019421	      0.15180749	    -59.58978677	      4.05021413	     13.71409646	    -12.75924489	      6.65395008	      3.62681853
      6.04000000	      2.18613086	     -5.59000881	      0.35200186	      0.51692450	      1.01483334	     -0.09106409	      6.64299190	     10.14499173	     -3.65713062	    -13.71711618	      5.06619360	     -3.26760516	     10.35271222	     -7.38514099	      0.04417890	    -59.66258640	      4.86196346	     13.11553378	    -12.92069663	      6.73143864	      3.80408607
      6.05000000	      2.29818415	     -5.67376560	      0.43300379	      0.52013458	      1.01528223	     -0.09055565	      6.03769333	     10.28386691	     -3.60626176	    -13.19378537	      5.06882191	     -3.24234272	     10.83830880	     -7.68183840	     -0.09911715	    -59.59965843	      5.67611634	     12.61208185	    -13.05774559	      6.82858971	      4.01294495
